<?xml version='1.0' encoding='utf-8'?>
<svg xmlns="http://www.w3.org/2000/svg" enable-background="new 0 0 1920 1920" version="1.1" viewBox="0 0 1920 1920">
<g stroke-width=".0938">
	<g fill="#fff" stroke="#fff">
		<path d="m858 1151.1c48.51-0.01 97.09-13.27 138.42-38.77 2.44 5.79 3.25 12.61 0.44 18.43-4.44 9.0499-12.3 15.69-19.42 22.58-19.45 18.93-44.89 29.56-69.45 40.09-15.13 0.4801-30.55-4.5099-42.2-14.27-7.56-6.13-13.36-14.08-18.38-22.34 3.38-2.1402 6.04-6.6001 10.59-5.7201z"/>
		<path d="m723.48 1172c-0.15-14.76 5.07-29.76 15.29-40.55 21.66 6.79 43.96 11.39 66.38 14.79 15.08 2.16 30.2 4.26 45.45 4.6801-13.99 11.44-29.12 21.66-45.52 29.31-19.04 8.9301-40.09 13.36-61.1 13.34-5.37-0.1-10.75 0.42-16.11-0.01-1.92-0.0699-3.54-1.5599-3.74-3.46-1.16-5.95-0.52-12.08-0.65-18.1z"/>
	</g>
	<g stroke="#000">
		<path d="m1114 27.94c-0.33-4.98 4-9.7 9.0801-9.28 22.31 0 44.63-0.03 66.94 0.02 4.42-0.06 8.4301 3.88 8.36 8.32 0.0901 22.43-0.0699 44.85 0.0801 67.27 92.14 7.82 182.52 35.8 262.98 81.38 68 38.38 128.84 89.24 179.21 148.87 53.1 62.79 94.25 135.71 120.17 213.77 22.58 67.52 33.62 138.77 33.48 209.93-6.6801-0.0099-13.34-0.0099-20 0-7.16-15.03-18.55-27.65-31.38-38.09-1.16-0.74-2.36-2.52-3.86-1.41-13.92 5.45-30.72-0.31-39.39-12.23-2.99-3.99-5.12-8.61-6.23-13.45 0.0399-2.02-2.11-2.3-3.47-2.95-47.7-18.64-99.86-24.52-150.73-20.29-40.79 3.67-81.56 13.85-117.48 33.96-22.74 12.92-44.07 30.53-55.71 54.45-7.63-0.22-15.43 0.46-22.94-0.33-8.11-16.27-20.77-29.87-35.2-40.76-29.12-21.8-64.08-34.5-99.45-41.8-4.42-0.86-8.8301-1.81-13.3-2.27-3.24 35.3-6.39 70.6-8.85 105.97 10.14-5.42 20.7-10.54 32.16-12.41 15.12-2.38 30.92 0.01 44.86 6.26 12.13 5.53 22.51 14.09 34.08 20.62 5.1901 2.91 11.14 5.56 14.12 11.06 2.66 4.42 1.95 10.04-0.38 14.44-3.92 7.45-10.45 13.06-16.96 18.2-11.83 9.02-24.94 16.22-38.3 22.72-10.66 5.01-21.51 9.7401-32.86 12.99-13.75 3.41-27.92 4.47-42.01 5.35-0.26 14.27-0.58 28.55-2.14 42.76-2.83 34.9-6.64 69.96-4.1899 105 5.73-3.64 11.47-7.27 17.45-10.48 0.67 0.02 1.99 0.0699 2.65 0.1 26.56 13.4 55.53 22.28 80.22 39.23 7.49 4.9501 14.33 12.83 13.24 22.45 13.97-1.8401 27.46-6.3301 40.31-12.01-0.03 17.9-0.3301 37.22-10.48 52.74-10.29 15.56-27.99 24.36-45.48 29.26-23 6.11-48.13 3.98-69.7-6.1101-7.99-3.7-16.29-6.6699-24.21-10.52-7.9 6.0399-15.29 12.73-23.19 18.77-14.68 8.0701-30.02 14.95-44.28 23.78-18.1 10.79-36.19 21.61-54.31 32.36-16.42 8.4-33 16.5-49.45 24.82-3.62 1.91-7.51 3.21-11.29 4.74 7.89 19.42 13.98 39.52 19.31 59.78 4.9 18.34 8.81 36.93 14.14 55.16 6.51 22.72 14.14 45.11 22 67.39 3.37 10.63 9.0901 20.28 13.65 30.41 8.3101 17.27 15.12 35.81 15.23 55.22 2.75 11.89 6.3501 23.71 7.0801 35.97 0.0399 2.8 0.11 7.29-3.5 7.8301-26.19 7.16-52.89 12.28-79.31 18.45l-0.83 0.6801c25.53 2.0599 50.3 9.14 75.61 12.77 20.7 3.4299 41.85 2.3099 62.5-0.8501 21.81-3.09 43.82-7.3099 65.93-5 25.01 2.3401 50.08 4.1001 75.08 6.5801 19.75 2.0399 39.59 4.12 58.87 9.08 24.89 5.98 49.07 14.69 74.21 19.7 17.51 3.1799 34.34 9.22 50.75 15.98 17.53 7.14 34.75 15.28 53.09 20.22 21.56 5.7 44.05 4.17 66.11 4.01 15.23-0.0701 31.31-0.0701 45.2 7.0699 23.91 11.95 45.41 29.81 59.1 52.98 4.9 8.42 8.8101 17.59 10.18 27.3 0.34 5.4301 0.77 11.18-1.5901 16.27-4.1599 10.05-13.05 17.04-21.84 22.92-12.37 8.11-25.8 14.41-39.07 20.88-11.72 5.79-24.03 10.58-34.76 18.16-14.46 9.84-27.87 21.19-42.76 30.42-12.43 7.88-25.96 14.18-40.31 17.65-34.91 9.09-70.61 14.57-106.01 21.33-20.19 3.4301-40.68 4.41-61.06 5.9399-15.82 0.91-31.58 2.5701-47.3 4.5701-40.7 4.09-82.21-4.3101-122.43 5.21-22.62 5.2001-44.46 13.52-67.37 17.53-17.2 3.17-34.95 2.54-52.09-0.6801-24.81-4.2899-49.44-11.73-74.87-10.52-32.04 1.4199-63.12 10.9-95.15 12.53-50.74 2.0601-101.17-11.09-151.88-4.97-23.62 2.1901-47.24 6.25-71.04 4.91-37.62-2.03-73.6-14.96-111.09-17.92-33.44-3.38-66.51-9.45-99.78-14.09-23.65-3.39-47.53-0.4-71.2 1.05-13.29 0.7599-26.76 0.87-39.87-1.7301-24.99-4.73-49.87-10.07-74.59-16.08-20.1-4.88-39.97-10.65-59.96-15.95-21.7-6-43.51-11.88-64.39-20.39-28.37-11.75-54.56-30.45-72.01-56-6.15-9.3-11.25-19.66-12.59-30.85-0.73-5.8601 0.34-11.96 3.57-16.94 5.29-8.38 13.88-13.86 22.26-18.74 18.2-10.09 37.63-17.65 56.38-26.59 16.35-7.23 31.03-17.53 46.3-26.7 12.74-7.7 25.92-14.78 39.89-19.98 9.19-3.54 18.79-5.77 28.19-8.62 23.18-6.85 46.25-14.11 69.8-19.6 34.16-8.1901 69.22-11.26 104.02-15.41 11.02-1.1799 21.97-3.1 33.05-3.8199 34.35-1.41 68.67 6.5299 102.96 1.76 23.51-3.52 45.81-12.16 68.89-17.58 24.42-6.2 49.8-5.2899 74.76-6.89 11.3-0.62 22.64-0.37 33.93-1.26 0.53-2.36 1.09-4.6799 1.51-7.0299-12.88-2.28-25.68-5.04-38.56-7.3301-13.11-1.9199-26.33-3.4199-39.16-6.87-5.33-1.49-10.74-3.21-15.32-6.39-2.86-2.0499-5.67-5.2999-5-9.0599 1.63-8.02 3.9-15.9 5.61-23.89 0.29-7.12 0.56-14.26 1.84-21.28 3.52-21.59 12.86-41.55 20.62-61.83 0.12-1.14 1.57-2.65 0.45-3.5601-24.43-24.59-45.55-53.78-55.07-87.49-6.19-21.89-6.56-45.51-0.1-67.38 5.0699-17.84 14.48-34.1 25.12-49.16 15.44-21.68 35.65-39.63 57.89-54.1 5.09-3.2699 11.21-4.13 17.11-4.75 2.39-5.45 5.65-10.5 9.64-14.9-21.1-6.64-41.59-15.21-61.14-25.55-12.9-6.84-24.65-15.9-34.22-26.94-2.53 18.17-9.52 35.39-17.81 51.64-7.61 14.59-16.26 28.69-26.34 41.71-14.1 17.84-30.37 34.04-48.63 47.61-13.48 9.75-28.39 18.61-45.1 21.12-3.69 0.23-8.66 1.71-11.07-2.08-3.37-5.78-2.51-12.86-2.38-19.27 1.69-20.9 6.65-41.38 12.11-61.57 3.34-11.94 6.99-23.81 11.55-35.34 1.61-3.9 3.17-7.88 5.6-11.35 11.61-15.01 22.18-30.92 35.46-44.55 3.39-3.3099 6.92-6.59 11.14-8.7999 2.96-1.62 6.43-1.41 9.7-1.4601 8.53-0.09 17.31-1.01 25.08-4.76 6.72-3.1599 12.28-8.2 17.78-13.09 1.58-0.9399 1.43-2.5699 0.81-4.04-15.84 6.7301-33.18 11.19-50.48 9.0701-4.09-1.65-7.47-4.6-11.16-6.9401-5.3-3.87-11.07-8.4299-12.66-15.12-1.4901-8.46 3.5699-16.03 7.66-22.96 13.31-20.66 25.88-41.84 40.28-61.79 7.03-9.61 14.28-19.15 22.74-27.57-9.18-31.04-8.14-64.44 0.28-95.51 8.89-32.94 25.28-63.68 46.72-90.14 21.62-26.59 48.69-49.13 79.94-63.48-43.44-3.21-87.65 1.11-129.23 14.33-5.92 1.99-11.92 3.83-17.6 6.46 4.75 4.55 9.03 10.02 10.45 16.58 3.13 12.19-2.4 25.8-12.62 32.96-10.32 7.41-24.84 8.25-35.93 2.06-7.9301-4.42-13.81-12.63-14.91-21.71-12.75 10.47-24.12 23.02-31.27 38.02-8.34 0.0099-16.67 0-25.01 0-0.26-92.28 18.66-184.69 56.42-268.96 61.19-137.59 171.58-252.53 306.41-319.51 1.97-16.08 6.72-31.68 8.26-47.82 0.89-4.39-0.25-8.78-0.79-13.13-0.98-1.2-1.02-3.98 1.15-3.28 0.13 0.42 0.41 1.26 0.54 1.67 4.88 10.32 14.21 17.33 23.02 24.1 6.75 4.92 13.47 9.89 19.74 15.42 67.88-26.79 140.38-41.78 213.29-44.49 0.2898-21.42-0.1102-42.85 0.0798-64.27m2.52 0.07c0.0701 22.84-0.21 45.7 0.15 68.54-2.8 0.92-5.75 0.7-8.64 0.84-69.26 3.3-137.94 17.98-202.59 43.03-0.15 0.5-0.45 1.49-0.61 1.99-12-13.33-28.62-21.36-40.83-34.47-2.07-2.34-4.18-4.78-5.16-7.8-0.58 1.24-1.77 2.42-1.06 3.94 0.73 5.32-0.21 10.68-0.96 15.95-2 14.08-6.19 27.82-7.3 42.03-0.65 9.07 3.46 18.24 10.51 23.95 10.97 9.14 28.14 9.16 39.52 0.72 7.34-5.19 11.97-13.82 12.79-22.72 0.69-7.62-2.06-15.33-7.05-21.08 2.81 0.65 3.65 3.65 4.97 5.83 5.65 10.82 3.08 24.58-4.67 33.69-11.1 13.21-32.92 15.25-46.2 4.23-6.35-5-9.97-12.77-10.88-20.7-63.38 31.64-121.21 74.24-170.92 124.66-53.21 54.05-96.95 117.41-128.44 186.43-38.17 83.23-57.89 174.68-58.34 266.2 5.67-0.2 11.39 0.39 17.02-0.27 8.28-15.16 20.16-28.16 33.85-38.61 2.04-20.12 8.85-39.61 9-59.93 1.17 4.47 0.41 9.15-0.09 13.67-1.84 15.43-6.56 30.39-7.85 45.89-0.83 10.8 5.11 21.6 14.5 26.92 11.13 6.5 26 5.41 36.13-2.54 9.91-7.5 14.88-21.41 10.79-33.33-2.41-7.73-8.65-13.36-14.49-18.59 1.38-0.17 2.72-0.51 4.03-1.04 15.36-6.12 31.29-10.76 47.45-14.24 56.03-11.78 115-10.12 170.09 5.61 25.32 7.47 49.94 18.06 71.53 33.38 15.81 11.43 30.39 25.46 39.3 43.03 3.29 0.1 6.58 0.09 9.8799-0.06 8.81-17.04 22.82-30.81 38.11-42.11 27.59-19.79 59.95-31.98 92.9-39.37 48.21-10.51 98.61-10.85 146.97-1.11 35.45 7.39 70.47 20.1 99.8 41.76 14.63 11.02 28.04 24.4 36.37 40.9 5.62 0.06 11.25 0.1 16.88-0.01 12.96-24.31 35.24-42.16 59.02-55.27 40.74-21.95 87.05-32.06 133.04-34.1 46.62-1.88 93.86 4.81 137.41 21.87 0.35-13.1 8.84-24.58 19.07-32.07 6.9401-4.16 14.07-8.69 18.56-15.63 3.97-5.82 5.63-13.49 3.12-20.22 2.1 0.85 2.72 3.25 3.87 5.01 12.31 22.2 15.78 47.74 20.23 72.35 0.85 8.69-5.67 15.78-12.22 20.52 11.64 9.05 21.85 20.06 29.55 32.66 1.0901 1.61 1.6801 3.68 3.3 4.89 3.78 0.21 7.58-0.04 11.38 0.08-0.3201-84.97-17.37-169.88-50.38-248.2-29.82-71.06-72.52-136.65-125.2-192.87-50.3-53.73-109.77-98.87-175.07-132.82-74.87-39.02-157.48-63.06-241.59-70.34-1.9-0.14-0.9301-2.86-1.2101-4.09 0.01-22.65 0.0901-45.3-0.0399-67.95 0.2-3.1-2.66-5.98-5.75-5.83-22.36-0.09-44.71-0.05-67.07-0.02-3.8099-0.51-6.8599 3.2-6.4799 6.82m-259.13 71.76c0.34 0.23 0.34 0.23 0 0m877.82 511.46c0.86 8.85-2.9701 17.59-9.55 23.44-5.66 5.93-13.75 8.64-19.37 14.6-5.85 6.04-11.12 13.28-12.44 21.78-1.7401 10.82 2.75 22.09 10.7 29.47 10.33 10.07 28.04 12.86 40.05 4.17 6.37-4.41 12.68-11.27 11.76-19.59-4.42-25.21-8.24-51.32-21.15-73.87m-663.28 53.64c-38.63 7.71-77.02 21.77-107.76 47.02 1.48 1.11 2.96 2.25 4.42 3.42 36.41 1.14 73.69 4.3 107.6 18.64 17.3 7.32 33.17 18.29 45.37 32.67-0.77 0.17-2.3101 0.53-3.0801 0.7-7.0599 18.5-17.33 36.06-31.84 49.72 8.5 7.29 17.04 14.95 22.74 24.74 5.88-8.52 9.5601-18.25 13.85-27.61 4.5601-9.88 13.42-16.72 22.01-22.94 0.8301-44.22 2.05-88.44 3.0701-132.65-25.59-0.5901-51.26 1.3699-76.38 6.2899m147.07 94.16c-11.01 1.83-21.2 6.68-30.96 11.89-15.81 8.87-32.85 15.73-47.35 26.8-6.3101 5-12.37 10.82-15.62 18.33-4.51 10.2-8.6901 20.72-15.45 29.7-0.2699-0.04-0.8199-0.14-1.09-0.18-6.92-13.45-19.1-23.06-30.66-32.35-13.48-10.98-28.8-19.52-41.84-31.05-1.41 0.11-2.8 0.21-4.17 0.47-34.36 7.48-68.46 16.23-101.91 27.1-5.41 2.02-11.19 3.24-16.27 6 2.34 7.22 5.57 14.18 10.19 20.25 8.31 10.74 19.93 18.37 32.08 24.14 18.91 9.11 39.22 15.51 60.11 17.91 25.91 3.01 52.4-0.36 77.07-8.69 5.73-1.62 10.76-4.92 15.04-8.99 9.62 1 19.15 3.06 28.84 3.76 25.94 2.48 52.29 2.58 78.01-1.99 9.03-1.44 17.53-4.9 25.97-8.27 10.54-4.44 20.84-9.46 30.81-15.08 11.96-6.9 23.95-14.35 33.07-24.9 3.49-4.28 6.86-9.71 5.64-15.47-1.59-5.58-6.9299-8.7599-11.73-11.31-11.26-6.1-21.41-14.03-32.67-20.13-14.36-7.43-31.11-10.36-47.11-7.94m-180.68 22.41c9.72 7.47 19.93 14.28 29.86 21.46 5.77 3.91 11.01 8.52 16.79 12.42 13.7-13.27 23.92-29.82 30.61-47.63-25.88 3.75-51.69 8.25-77.26 13.75m-220.84 76.04c-16.78 9.47-33.41 19.21-50.1 28.85-0.97 0.61-2.47 1.09-2.23 2.56-0.98 22.12-13.63 41.18-24.73 59.53-10.18 16.6-23.7 30.78-37.47 44.42-7.31 7.0099-14.22 14.44-21.88 21.07-8.32 7.1201-16.92 13.93-26.03 20.01-5.96 3.8199-12.1 7.6699-19.03 9.45 4.92 9.67 6.08 20.74 5.21 31.44 4.77 5.5399 9.88 10.83 15.61 15.39 13.6 11.02 29.73 18.23 45.61 25.3 39.44 17.15 81.87 26.26 124.46 31.13 62.16 7.8 126.98-7.74 178.7-43.12 30.51-20.75 56.37-48.49 74.19-80.85 10.29-18.39 18.75-38.05 22.75-58.82 4.4-22.04 3.65-44.73 1.2-66.95-1.13-9.01-1.1899-18.6-6.34-26.47-32.25 11.79-67.97 14.66-101.46 6.62-18.28-4.44-36.1-11.21-52.36-20.73-15.16-8.87-27.71-22.97-32.25-40.2-32.3 11.29-63.86 24.86-93.85 41.37m282.4 11.82c1.54 3.73 3.5701 7.32 4.3201 11.33 4.49 31.51 6.77 64.22-1.92 95.25-5.21 19.15-13.87 37.19-23.89 54.26-19.52 32.88-47.3 60.66-79.71 80.87 1.64 4.14 2.49 8.55 2.61 13.01 8.19-3.77 16.41-7.48 24.62-11.21 20.7-9.7301 42.15-17.74 63.25-26.55 17.12-6.54 33.19-15.43 49.76-23.2 1.09-65.28 2.97-130.54 4.45-195.82-11.46-1.17-22.93-2.36-34.26-4.47-2.6101 2.7801-5.8101 4.9001-9.2301 6.5301m-383.47 47.97c-34.2 21.42-66.81 45.19-99.6 68.67 1.14 16.63-1.21 34.55 6.97 49.81-7.39 7.05-14.96 14.32-24.46 18.46-9.54 3.9501-20.02 4.0801-30.17 4.3201-6.24 1.8199-10.73 7.0499-15.2 11.49-12.42 13.12-22.47 28.19-33.46 42.47-5.13 8.35-7.78 17.93-10.99 27.12-7.46 23.21-13.45 46.95-16.78 71.12-0.8 7.5-1.76 15.2-0.2 22.68 0.49 2.1899 1.68 5.1599 4.46 4.87 10.73-0.23 20.91-4.25 30.38-9 11.65-6.12 22.25-14.04 32.25-22.55 13.88-12.16 26.69-25.6 37.82-40.33 12.76-17.45 23.62-36.34 31.87-56.33 6.47-16.14 11.35-33.61 9.07-51.14-0.85-6.2401-3.43-12.03-6.33-17.55 6.39-0.49 12.09-3.61 17.45-6.9 12.35-7.6699 23.71-16.86 34.54-26.53 12.32-12.33 25.11-24.22 36.67-37.28 12.22-13.7 21.72-29.53 30.5-45.58 5.79-11.05 11-22.96 11.27-35.62-15.64 8.7499-30.84 18.32-46.06 27.8m-113.36 78.75c-8.08 5.9-17.15 10.21-25.8 15.16-4.11 2.11-6.71 6.15-8.81 10.11-1.81 6.45 0.16 13.19 1.7599 19.49 16.35 1.35 32.86-2.48 47.63-9.4301-3.22-13.92-4.38-28.17-4.84-42.41-3.4299 2.19-6.5899 4.78-9.9399 7.08m565.85 27.78c-3.95 3.41-7.83 7.2-9.95 12.05-1.41 3.0601-0.92 7.2101 2.09 9.14 3.5601 2.16 7.91 2.3201 11.98 2.16 9.55-0.67 18.9-3.09 27.98-6.05 0.3101 0.79 0.63 1.59 0.9601 2.41-8.17 5.42-16.93 10.41-23.36 17.97-2.88 3.4-5.2101 8.3201-2.9901 12.68 2.7001 5.26 8.0801 8.8099 13.58 10.68 5.75 1.9301 11.99-0.48 16.16-4.58 6.62-6.37 10.61-14.85 14.03-23.23 0.64 0.0699 1.91 0.2 2.55 0.26-2.3101 10.61-6.4401 20.81-7.8 31.63-0.5399 4.2999-0.6 9.11 1.89 12.87 2.6901 3.63 7.75 4.1 11.91 3.61 5.42-0.66 9.71-4.73 12.22-9.35 4.74-8.5901 5.99-18.47 7.8201-27.96 0.62 0.0601 1.86 0.16 2.48 0.2201 0.6 6.2799 1.4099 12.62 3.49 18.61 1.13 3.0299 2.75 6.48 6.1 7.5399 3.83 0.4701 6.95-2.4299 9.54-4.86 4.98-5.03 10.6-9.7 14.03-16.01 2.7401-4.75 2.87-10.81 0.4801-15.72-3.24-6.46-9.66-10.43-15.48-14.33-23.75-14.64-50.41-23.48-75.34-35.78-8.56 4.6401-16.92 9.7501-24.37 16.04m23.42 22.44c0.49 0.48 0.49 0.48 0 0m-74.96 30.08c-17.87 9.26-36.93 15.89-55.43 23.75-19.79 7.62-38.87 16.88-58.2 25.54-1.24 0.6901-3.06 0.99-3.32 2.65-1.86 6.42-6.11 11.76-10.63 16.54-7.5 7.8999-15.68 15.11-24.13 21.98 11.68 17.65 21.34 36.56 29.65 56 9.69-3.27 18.51-8.52 27.71-12.91 15.34-7.86 31.16-14.85 45.68-24.2 12.13-7.2101 24.26-14.43 36.38-21.67 15.78-10 32.78-17.8 49.15-26.74 7.4099-5.75 14.64-11.77 21.74-17.92-9.3501-4.1799-18.42-9.36-25.82-16.52-4.7-4.58-8.52-10.24-10.27-16.61-1.6699-6.61-0.83-13.46-1.0399-20.19-7.3001 3.13-14.27 6.96-21.47 10.3m-259.32 74.79c-4.55-0.88-7.21 3.58-10.59 5.72 5.02 8.26 10.82 16.21 18.38 22.34 11.65 9.76 27.07 14.75 42.2 14.27 24.56-10.53 50-21.16 69.45-40.09 7.12-6.89 14.98-13.53 19.42-22.58 2.81-5.8201 2-12.64-0.44-18.43-41.33 25.5-89.91 38.76-138.42 38.77m-134.52 20.9c0.13 6.02-0.51 12.15 0.65 18.1 0.2 1.9 1.82 3.39 3.74 3.46 5.36 0.4301 10.74-0.09 16.11 0.01 21.01 0.02 42.06-4.4099 61.1-13.34 16.4-7.65 31.53-17.87 45.52-29.31-15.25-0.42-30.37-2.52-45.45-4.6801-22.42-3.4-44.72-8-66.38-14.79-10.22 10.79-15.44 25.79-15.29 40.55m-7.54-22c-4.94 1.46-8.89 4.91-13.08 7.73-17.4 12.27-33.31 26.85-46.22 43.83-11.58 15.65-21.92 32.62-27.52 51.39-6.16 20.04-6.54 41.73-1.62 62.08 8.44 35.03 29.88 65.47 54.95 90.74 0.22-0.01 0.68-0.05 0.91-0.0701 2.71-7.39 4.81-14.99 6.74-22.6 2.55-2.6899 3.2-6.41 4.52-9.73 8.4-22.82 17.79-45.29 28.66-67.04 19.4-36.39 34.49-74.84 49.71-113.09-14.47 2.98-29.3 2.9301-44 2.98-3.35 0-6.85-2.08-7.32-5.61-1.31-9.1801-0.79-18.52-0.09-27.74 0.37-5.0699 2.3-9.8101 3.46-14.71-3.08 0.38-6.15 0.87-9.1 1.84m60.3 42.5c-10.59 25.04-20.13 50.52-31.4 75.27-7.9 18.55-17.96 36.05-26.4 54.34-9 19.49-16.96 39.45-24.27 59.63 13.91-0.3199 27.86-2.0601 41.78-0.75 3.2 0.55 7.32 0.83 9.06 4.0699 2.56 4.9 1.86 10.66 1.54 15.99-1.49 11.9-4.98 23.43-8.4 34.9-3.89 15.62-16.31 27.17-28.89 36.3-14.5 10.06-30.61 18.23-47.84 22.29-1.58 5.76-2.86 11.6-4.3 17.41-0.62 3.3201-2.24 6.7201-1.34 10.15 2.3199 4.2001 7.1 6.03 11.32 7.74 12.46 4.6 25.78 6.0601 38.84 8.05 10.48 1.27 20.76 3.73 31.15 5.61 42.83 8.3099 86.11 16.47 129.93 15.86 49.19 0.29 99.19 3 147.41-8.8099 23.37-5.14 46.79-10.1 69.93-16.22 1.4501-4.7 0.3-9.6-0.33-14.32-1.6-8.46-3.42-16.91-5.9301-25.13-20-5.34-39.23-13.89-56.24-25.74-10.79-7.77-21.63-17.12-26.06-30.07-3.74-12.85-7.99-25.67-9.43-39.03-0.22-4.79-0.75-9.92 1.29-14.41 1.84-3.9 6.59-4.28 10.35-4.74 14.01-1 28.01 0.4399 42.01 0.97-4.5-13.88-9.0601-27.75-13.01-41.79-6.23-21.51-10.63-43.49-16.8-65.01-10.36-37.65-24.93-74.6-46.95-107.02-11.17 8.1699-23.8 14.02-36.3 19.82-6.25 2.7-12.37 5.8-18.82 7.97-10.77 0.5901-21.64-2.0299-31.37-6.61-13.63-6.51-23.77-18.34-31.54-31-20.35 15.84-43.55 28.96-68.99 34.28m-83.91 191.9c-4.3 18.08-11.63 35.21-18.39 52.47-6.95 17.55-12.53 36.02-12.7 55.06 14.13-3.0499 27.31-9.6 39.61-17.04 13.67-8.8201 27.52-19.66 33.58-35.3 3.92-13.01 8.08-26.07 9.76-39.61 0.29-4.36 0.76-9-1.05-13.1-1.27-3.17-5.23-3.04-8.04-3.48-14.26-0.9701-28.53 0.39-42.77 1m297.56 2.43c-1.87 4.4501-1.35 9.4401-0.93 14.13 1.54 12.27 5.32 24.11 8.79 35.95 1.4 5.39 4.4 10.21 7.91 14.5 7.86 9.2899 17.91 16.44 28.36 22.56 13.73 7.92 28.44 14.37 43.88 18.08-0.14-18.68-7.01-36.42-14.89-53.07-8.51-17.72-17.75-35.35-22.35-54.61-14.57-0.51-29.19-2.11-43.77-0.86-2.53 0.43-5.96 0.46-7 3.32m-245.04 203.01c-0.77 5.01-0.08 10.11-0.52 15.17 8.55 0.5499 17.14 0.0599 25.72 0.23 30.52 0.04 61.05-0.09 91.58 0.0699-1.08-13.48-3.17-26.86-4.48-40.31-0.28-1.24-0.1-3.5601-2.02-3.23-34.15-0.62-67.94-6.27-101.43-12.51-4 13.28-5.78 27.07-8.85 40.58m-55.47-30.81c-12.42 0.74-24.94 0.86-37.18 3.3099-33.91 6.09-66.09 21.96-101.09 21.36-26.1 0.75-51.98-4-78.09-3.24-10.4 0-20.64 2.04-30.96 3.14-31.69 3.9401-63.58 6.63-94.95 12.86-25.39 5.0901-50.23 12.5-74.99 19.98-17.48 5.4301-35.57 9.28-52.05 17.5-19.49 9.0801-37.08 21.57-55.63 32.33-24.47 13.61-51.32 22.45-75.52 36.6-8.89 5.51-18.36 12.13-21.78 22.54-2.07 7.88-0.25 16.21 2.59 23.68 5.58 14.24 15.12 26.56 25.87 37.28 15.3 14.92 33.55 26.72 53.21 35.03 18.83 7.86 38.5 13.39 58.11 18.89 21.02 5.63 41.95 11.6 63.05 16.93 24.82 6.14 49.81 11.58 74.92 16.4 35.02 7.85 70.68-2.73 105.99 0.52 9.14 0.63 18.16 2.37 27.24 3.5699 23.4 3.5901 46.77 7.4401 70.29 10.23 11.52 1.38 23.13 2.0901 34.56 4.16 34.22 5.8101 68.05 16.29 103.08 15.26 28.74-0.9399 57.14-6.83 85.94-6.9 36.09 0.4601 71.87 6.49 107.97 6.9301 21.16 0.5399 42.1-3.13 62.86-6.79 22.17-3.73 44.73-7.9299 67.27-5.1799 26.21 2.6599 51.52 11.52 77.94 12.45 16.58 0.75 33-2.48 48.93-6.78 19.32-5.0599 38.24-11.82 58-15.08 39.13-6.0601 78.85 1.72 118.01-3.73 34.56-4.7201 69.66-4.0701 104.06-10.17 23.02-4.41 46.12-8.33 69.09-12.99 15.34-3.28 30.77-6.42 45.67-11.37 25.96-9.04 46.82-27.49 68.95-43.06 11.77-8.6 25.45-13.87 38.43-20.3 13.26-6.47 26.66-12.85 38.92-21.13 9.12-6.3 18.48-14.14 21.31-25.35 2.4-14.02-3.42-27.88-10.36-39.75-13.87-22.87-35.31-40.53-59.17-52.23-12.01-5.96-25.76-6.5299-38.9-6.49-20.96-0.1599-42.12 1.5901-62.86-2.22-15.71-2.9199-30.5-9.2-45.2-15.24-21.53-9.12-43.25-18.46-66.38-22.69-33.6-6.6901-65.67-19.75-99.64-24.83-35.44-5.1-71.22-7.0499-106.83-10.46-32.66-3.8101-64.59 6.58-97.06 7.67-35.43 1.5399-69.4-10.63-104.32-14.34-3.83-0.36-7.69-1.34-11.54-0.6699-7.15 1.26-14.35 2.2699-21.56 3.0499 1.27 4.9 2.53 9.8201 3.79 14.74 2.38 10.62 7.09 20.5 10.57 30.77 13.03 0.1 26.06 0 39.09 0.05 1.63-0.4 2.15 2.0599 3.86 1.51 6.03-0.13 12.05-0.88 18.1-0.5601 15.69 0.37 31.57-1.02 47.07 2.1 32.67 5.5 62.86 21.98 96.29 23.58 23.16 2.25 46.46 0.71 69.68 1.71 22.87 1.22 44.75 9.2 65.06 19.38 16.57 8.0601 32.31 17.9 49.65 24.31 11.28 4.3999 22.45 9.1699 33.1 14.97 9.7101 5.46 19.43 11.73 26.04 20.91 4.8099 6.8101 7.2 15.55 5.74 23.83-1.36 11.73-8.05 22.12-16.23 30.34-10.8 10.43-23.97 18.02-37.6 24.12-34.65 14.47-70.93 24.74-107.59 32.67-20.57 4.47-40.72 10.65-61.2 15.47-41.91 10.34-85.23 11.57-128.01 15.28-19.61 1.74-39.3 2.13-58.99 1.84-25.95 0.1801-52.03-1-77.81 2.5-24.65 2.84-49.27 6.7-74.15 6.53-10.69-0.09-21.37-0.4401-32.07-0.46-14.95-1.15-30.01-0.4401-44.97-1.7401-24.39-0.46-48.74-2.08-73.03-4.2599-21.67-2.2101-43.41-3.7401-65.08-6.0801-23.76-2.84-47.31-7.15-70.95-10.77-22.93-3.35-45.98-5.8099-68.94-8.9199-23.61-2.8401-46.84-7.99-70.06-13.03-19.95-4.38-39.94-8.85-59.36-15.25-20.68-6.9-40.59-16.56-57.97-29.81-12.03-9.63-24.07-20.98-28.73-36.13-0.99-5.99-1.26-12.5 1.39-18.12 3.9-9.08 11.03-16.2 18.29-22.66 13.46-11.29 28.99-19.81 44.95-26.98 8.96-3.89 18.01-7.75 27.6-9.8101 21.42-4.83 43.44-5.62 65.1-8.89 13.08-1.6 25.83-5.16 38.92-6.75 24.17-3.33 48.59-4.28 72.81-7.24 24.11-2.92 47.93-7.79 71.96-11.3 19.67-3.0399 39.51-4.58 59.31-6.37 0.93-5.2799 1.7-10.59 2.45-15.88 9.48-0.11 18.97-0.0299 28.46-0.0499 0.17-6.13-0.62-12.37 0.81-18.4 2.14-10.07 3.91-20.21 6.2-30.25-19.92 0.9302-39.85 1.2902-59.75 2.4202m170.02 2.72c1.09 14.49 3.63 28.84 4.78 43.34 40.99 0.37 82 0.03 123.01 0.15-1.63-5.3101-3.8-10.42-5.67-15.64-4-9.5-5.47-19.78-8.51-29.59-37.77 3.68-75.74 1.86-113.61 1.74m171.74 45.71c2.4 14.67 3.95 29.53 7.02 44.07 9.0699-7.3301 19.39-14.31 24.26-25.35 0.36-1.11 1.5599-2.9099 2.2799-0.9399-0.3999 2.6801-0.26 6-2.22 8.05 0.4301-2.3401 0.8201-4.67 1.1801-6.99-1.87 2.8899-3.35 6.0699-5.5901 8.72-12.9 15.42-32.54 23.43-44.83 39.44-2.41 2.8401-3.11 6.5901-5.02 9.7001 0.07-2.5701 1.08-4.9301 2.16-7.2001-16.92-3.53-34.27-3.01-51.44-2.63-12.44 0.51-25.12 1.91-36.65 6.91-12.23 5.1899-22.82 13.53-32.37 22.62-8.56 8.0601-13.16 19.24-16.92 30.14-6.04 18.27-9.19 37.31-13.94 55.92 15.97 0.33 31.94-0.02 47.92 0.1699 13-0.35 26.01 0.3 39.02-0.1699 53.51 0.25 107-0.13 160.51 0.22 0.01-15.85-0.7-32.15-6.59-47.05-6.0601-15.33-17.88-27.53-30.97-37.15-2.6499 4.52-5.8999 8.8401-10.4 11.67-10.9 7.27-26.22 7.0699-37.08-0.1801-10.44-6.7899-16.67-20.42-13.46-32.56 0.19 4.21-0.29 8.49 0.7 12.65 1.55 6.4099 5.05 12.38 10.05 16.72 9.66 8.4399 24.49 10.35 35.95 4.54 9.9301-4.77 16.74-15.63 16.08-26.72-0.9601-19.83-9.0701-38.83-8.28-58.8 1.1899 1.26 0.62 3.08 0.8099 4.6699-0.08 4.9501 1.1101 9.8101 1.5 14.74 13.06 0.0199 26.09 1.2999 39 3.23 24.18 3.34 48.37 6.71 72.29 11.6 20.58 4.37 41.14 9.9399 59.93 19.64 11.79 6.1 22.99 13.94 31.08 24.63 5.41 7.4299 8.8101 16.94 6.63 26.15-2.63 10.41-10.43 18.59-18.92 24.71-18.7 13.45-41.01 20.56-62.99 26.62-19.25 5.36-38.52 10.71-58.04 15.01-23.88 5.03-48.26 9.89-72.78 7.59-24.35-1.09-48.65-4.49-73.08-2.85-12.46 0.62-24.74 3.0699-36.96 5.49-18.53 3.87-37.13 7.8101-56.03 9.23-7.31-0.1799-14.62 0.04-21.92-0.08-29.47-2.4-57.77-11.92-87.09-15.27-33.01-1.96-66.07-3.55-98.95-7.25-16.93-2.23-33.91-4.23-50.96-5.2-21.09-1.8201-42.43-2.52-63.01-7.9501-19.07-5.23-37.94-11.94-54.86-22.31-9.47-6.2001-18.96-13.75-23.15-24.64-3.7-8.92-1.07-19.25 4.48-26.79 10.23-13.82 25.65-22.51 41.1-29.32 18.29-7.67 37.52-13.68 57.39-15.22 23.61-2.4399 47.43-2.11 71.01-4.8999 11.77-1.2001 23.4-3.52 35.16-4.7201 1.39-1.01 1.21-2.8999 1.62-4.37 2.25-11.3 3.6-22.74 5.5-34.09-9.74 0.97-19.46 2.2-29.22 2.8101-23.15 2.23-46.07 6.21-68.98 10.12-20.86 3.62-41.88 6.3199-62.99 7.84-21.11 1.9399-42.37 3.29-63.13 7.87-25.4 5.42-51.47 6.13-76.99 10.67-16.25 2.74-31.39 9.6-46.05 16.85-16.4 8.4199-32.4 18.56-44.35 32.83-4.87 6.0701-9.12 13.34-8.9 21.39-0.16 9.6 5.2 18.1 10.93 25.38 16.42 19.38 38.93 32.52 62.16 42.14 22.61 9.13 46.5 14.4 70.22 19.74 19.27 4 38.43 8.67 57.93 11.5 23.27 3.5699 46.68 6.02 70.02 9.13 23.8 3.09 47.39 7.63 71.17 10.91 21.89 3.2699 44 4.34 65.98 6.72 20.08 1.66 40.11 3.8099 60.26 4.4199 10.18 1.0601 20.46 0.3601 30.64 1.4701 16.33 0.27 32.63 1.15 48.96 1.35 11.34-0.03 22.68 1.11 34 0.12 22.15-0.58 44.06-4.17 66.05-6.61 22.9-3 46.04-1.71 69.08-2.02 13.97-0.22 27.98 0.51 41.92-0.54 12.04-0.4099 24.03-1.6699 36.05-2.4299 23.57-1.9401 47.2-3.3301 70.67-6.37 35.27-3.5 68.97-15.06 103.36-22.91 35.45-7.51 70.45-17.43 104.14-30.82 15.91-6.5901 31.43-15.02 43.73-27.28 9.47-9.75 16.54-23.01 15.35-36.92-1.0601-11.43-8.98-20.72-17.88-27.28-16.38-12.1-35.64-19.32-54.41-26.8-18.01-7.92-34.75-18.42-52.75-26.35-18.33-8.29-38.06-14.06-58.28-14.47-26.44-1.0599-53.08 0.9701-79.35-3-32.23-5.25-61.96-21.07-94.71-23.76-12.96-1.0099-25.96-0.46-38.94-0.6-5.2999-0.2703-10.52 0.9696-15.82 0.7497m-321.1 38.63c-2.18 12.3-4.66 24.54-6.85 36.84 16.62-7.2899 34.67-11.18 52.82-11.32 14.02 0.01 28.13-0.3 42.04 1.8101 14.39 1.9299 28.02 8.0599 39.49 16.9 8.18 6.41 16.6 13.05 22.04 22.09 4.29 7.11 7.38 14.86 9.94 22.75 1.14-1.8501 1.06-4.0901 1.3-6.14 4.06-40.42 8.36-80.81 12.39-121.23-55.79-0.2001-111.59-0.12-167.38-0.03-1.95 12.77-3.9 25.55-5.79 38.33m175.5-37.97c-2.61 28.98-5.9 57.92-8.75 86.88-0.84 9.49-2.31 18.93-2.63 28.46 3.6801-7.7 7.69-15.44 13.94-21.39 8.79-8.13 18.14-15.86 28.97-21.13 18.13-9.2699 39.06-9.3099 58.93-9.34 12.02-0.26 24.07 0.66 35.83 3.21 6.38-8.7799 15.25-15.31 23.91-21.69-2.72-15.02-4.72-30.16-7.02-45.25-38.57-0.38-77.15-0.09-115.72-0.1901-9.15 0.26-18.37-0.55-27.46 0.44m179.63 45.04c1.4299 9.6599 4.0699 19.11 5.4399 28.79 1.36 7.17 1.7001 14.69-0.59 21.72 15.17 11.06 28.79 25.69 34.18 44.08 4.3501 13.73 4.49 28.25 5.02 42.51-0.6 0.72-1.1899 1.46-1.76 2.23-156.15-0.05-312.3-0.01-468.46-0.02-2.89-0.25-6.33 0.91-8.57-1.51 0.07-12.55 0.5-25.21 3.33-37.49 3.32-15.47 12.17-29.29 23.75-39.91 12.86-11.65 27.34-21.55 42.89-29.24 1.48-8.0199 2.93-16.04 4.55-24.03-20.92 2.87-41.81 6.4399-62.95 7.0599-22.39 1.42-45.04 1.41-67.03 6.42-13.67 3.5399-27.14 8.0599-39.9 14.15-13.22 6.2699-26.03 14.43-34.97 26.24-5.41 7.21-8.29 17.01-5.06 25.75 3.75 10.62 12.67 18.16 21.72 24.29 16.88 10.84 35.98 17.65 55.19 23.04 17.67 4.84 35.97 6.01 54.14 7.47 22.39 1.29 44.69 3.73 66.94 6.65 30.26 3.08 60.64 4.6801 91 6.4401 30.65 3.0399 60.14 13.43 90.92 15.54 9.32-0.35 18.74 0.73 27.98-0.85 24.3-2.4 47.85-9.28 71.99-12.69 12.28-1.92 24.74-1.4701 37.14-1.4901 24.98 0.7201 49.87 4.78 74.93 3.25 39.19-3.9299 77.16-15.05 114.97-25.61 19.85-6.0299 39.91-13.36 56.25-26.51 7.04-5.7999 13.28-13.31 15.31-22.4 0.63-5.03 0.6-10.32-1.4-15.04-3.4-9.4401-10.7-16.72-18.24-23.01-13.89-10.81-30.29-17.85-46.95-23.19-26.37-8.1101-53.72-12.32-80.96-16.35-20.2-2.68-40.36-6.45-60.8-6.29m-328.12 22.49c-21.56 3.01-41.75 12.52-59.37 25.07-14.13 9.85-27.9 21.46-35.75 37.12-8.01 16.09-8.75 34.42-9.09 52.03 64.05 0.39 128.13-0.05 192.18 0.17 10.51-0.25 21.03 0.45 31.52-0.25 4.14-15.83 6.89-31.99 11.37-47.72 0.8701-2.37-0.39-4.6799-1.02-6.8999-3.82-11.43-8.62-23.06-17.45-31.58-8.46-7.77-17.47-15.15-27.78-20.33-14.1-7.24-30.21-8.78-45.82-9.04-12.94-0.0898-25.97-0.6599-38.79 1.4302z"/>
		<path d="m1112 212.92c18.68-18.59 37.45-38.6 62.35-48.75-1.9801 3.33-5.17 5.85-6.6001 9.54-3.95 8.88-1.5399 18.91 1.9801 27.49 2.5499 5.27 4.34 10.94 4.85 16.78 0.25 6.34 0.61 12.95-1.85 18.94-3.75 9.81-12.58 17.32-22.65 20.05-11.71 3.62-25.13 0.31-34.01-8.07-5.16-4.94-7.8101-11.91-9.0601-18.8-1.11-6.06 0.32-12.91 4.99-17.18m46.59-39.56c-17.47 11.1-31.85 26.18-46.41 40.71-6.08 6.01-5.25 15.64-2.39 23.01 3.7 11.64 15.43 19.26 27.27 20.3 15.52 1.61 31.82-8.51 35.82-23.87 1.9501-9.24 1.2101-19.14-2.22-27.95-3.87-8.22-6.97-17.45-5.39-26.62 0.5701-4.59 3.03-8.59 5.79-12.19-4.4599 1.59-8.4599 4.17-12.47 6.61z"/>
		<path d="m776.23 405.1c0.68-1.86 2.99-1.46 4.55-1.86-1.59 4.03-3.02 8.35-1.89 12.71 2.02 7.11 6.96 13.33 13.51 16.8 11.29 7.44 23.5 15.91 28.13 29.26 4.78 14.84-3.33 31.52-16.56 38.96-10.28 6.03-23.94 6.37-34.21 0.14-1.17-0.73-2.65-1.47-2.8-3.04 9.49 7.63 23.32 8.66 34.16 3.41 12.16-5.92 21.06-19.26 19.83-33.02-0.73-8.8-6.04-16.4-12.31-22.28-6.28-5.87-13.5-10.58-20.69-15.24-5.14-4.05-9.18-9.92-10.2-16.47-0.63-3.55 0.64-7.01 1.59-10.37-3.4301 0.99-2.96 5.19-4.51 7.79-3.16 5.79-3.01 12.61-5.49 18.64-6.3701 16.43-11.07 33.79-11.22 51.51-0.13 6.41 4.21 11.77 8.68 15.9-3.62-0.74-5.37-4.55-7.27-7.35-3.0601-4.66-2.2401-10.37-2.0601-15.62 1.23-15.44 5.4901-30.47 11.05-44.88 2.41-5.67 2.16-12.12 5.09-17.61 1.2402-2.32 1.7202-4.93 2.6202-7.38z"/>
		<path d="m1453.1 441.12c0.87-1.33 2.28-1.87 3.83-2.07-1.35 4.14-3.9199 7.79-4.89 12.08-3.74 14.56-1.84 29.72-3.6 44.52-0.9 7.2-1.9199 14.8-6.23 20.87-5.98 8.72-16.8 13.59-27.28 12.96-14.6-0.64-27.82-12.13-30.72-26.41-2.11-8.66 0.13-18.21 5.61-25.2 4.6901-6.02 11.81-9.24 18.49-12.53 10.03-4.61 20.44-8.45 30.21-13.63 5.3699-2.72 10.72-5.85 14.58-10.59m1.14 2.29c0.14-0.41 0.4199-1.24 0.5599-1.66-1.4599-1.89-2.76 2.04-0.5599 1.66m-2.07-0.15c-3.63 4.53-9.0599 7.02-14.07 9.68-12.93 6.75-27 11.14-39.58 18.6-7.0901 4.12-12.17 11.37-13.67 19.43-2.95 15.08 7.03 30.92 21.36 35.85 14.25 5.43 32.3-1.55 38.04-15.96 5.09-14 3.65-29.16 4.61-43.76 0.73-7.39 1.03-15.15 4.47-21.91-0.4001-0.65-0.7902-1.29-1.1601-1.93z"/>
		<path d="m548.52 637.8c0.44-0.1 1.33-0.31 1.77-0.41 1.82 4.06 3.94 8.04 6.98 11.34 8.46 9.36 19.19 16.18 29.1 23.85 1.13 0.77 1.72 2.03 2.45 3.16-10.57-8.6-22.43-15.73-31.76-25.78-3.03-3.21-5.15-7.1-7.14-10.99 0.22 1.78 0.45 3.57 0.7 5.3701-1.18-2.01-1.77-4.26-2.1-6.54z"/>
		<path d="m1384.5 813.73c1.77 0.89 2.23 2.98 3.11 4.61 10.85 23.15 18.15 48.16 19.67 73.74 0.2899 5.34-2.49 10.31-6.13 14.02-3.5 3.52-7.1901 7.32-12.14 8.64-8.39 2.86-17.72 1.48-25.57-2.34-7.08-3.4-13.57-8.73-16.83-16.02-4.77-9.85-3.9-21.88 1.54-31.28 7.96-13.49 24.06-19.23 32.8-32.07 3.8302-5.5501 5.2401-12.76 3.5502-19.3m1.67 4.17c-0.38 4.54-0.6001 9.28-3.05 13.3-7.78 13.98-24.29 19.74-33.19 32.74-6.2101 9.42-7.4501 22.07-2.39 32.26 3.6599 7.85 11.04 13.3 18.87 16.55 8.58 3.5 18.98 3.91 27.07-1.06 4.55-3.53 9.09-7.54 11.61-12.83 2.7001-5.99 0.49-12.61 0.17-18.84-2.97-21.53-9.34-42.7-19.09-62.12z"/>
		<path d="m915.5 864.73c4.11-2.31 9.21-0.73 12.61 2.13 5.85 4.85 9.04 12.23 10.3 19.6 0.77 5.85 0.63 12.23-2.55 17.42-2.17 3.64-6.62 6.22-10.9 5.1-5.8-1.39-9.95-6.29-12.65-11.34-3.5-6.88-5.02-14.91-3.54-22.54 0.82-4.13 2.93-8.27 6.73-10.37m2.69 1.62c-3.74 0.9901-5.82 4.7401-6.76 8.22-1.72 6.58-0.47 13.62 2.08 19.82 2.25 4.74 5.4 9.64 10.46 11.7 3.26 1.5099 7.42 0.2 9.3701-2.77 2.5099-3.91 3.24-8.7 2.98-13.27-0.55-7.77-3.52-15.63-9.37-20.95-2.3101-2.16-5.6001-3.51-8.7601-2.75z"/>
		<path d="m811.35 899.48c4.92-2.76 10.87-0.06 14.41 3.71 7.04 7.56 10.13 18.59 8.44 28.74-0.87 4.85-3.54 10.04-8.57 11.59-5.2 1.43-10.36-1.65-13.64-5.5-6.2-7.39-8.89-17.51-7.58-27.02 0.72-4.48 2.69-9.34 6.94-11.52m1.95 1.86c-3.96 1.5-5.71 5.77-6.39 9.65-1.41 8.87 1.16 18.31 6.85 25.27 2.31 2.71 5.51 5.21 9.25 5.17 4.05-0.19 7.11-3.7 8.07-7.42 2.84-9.53 0.07-20.31-6.08-27.95-2.74-3.27-7.31-6.56-11.7-4.72z"/>
		<path d="m913.78 944.34l2.2-0.2c-3.08 8.55-8.13 16.85-15.78 22.01-9.13 6.05-21.22 3.89-30.29-1.13-1.24-0.52 0.07-2.5 1.03-1.59 7.59 3.85 16.86 6.22 25.03 2.74 8.86-4.13 14.36-13.04 17.81-21.83z"/>
		<path d="m1655.4 997.22c0.2 0.26 0.59 0.79 0.7799 1.05-8.6399 13.89-23.44 21.89-35.76 32.03-6.7799 5.74-14.08 11.91-16.81 20.7-4.28 13.18 2.33 28.5 14.27 35.23 9.15 5.4301 21 5.9301 30.63 1.4301 8.1599-3.8401 14.36-11.62 16.15-20.47 1.35-5.34 0.1399-10.83-0.54-16.16-2.6-17.49-8.52-34.72-7.3-52.58 0.39 0.06 1.16 0.18 1.55 0.24-1.71 5.95-0.51 12.19 0.24 18.2 2.0599 14.46 6.39 28.55 7.4301 43.16 0.58 9.1399-3.53 18.41-10.58 24.23-12.58 10.63-33.01 9.46-44.52-2.2101-10.42-9.98-12.92-27.61-4.1799-39.44 10.14-13.32 25.38-21.15 37.66-32.17 4.23-3.8701 8.54-7.9501 10.98-13.24z"/>
		<path d="m853.42 1218.6c9.26-1.7001 19.2 2.9199 24.07 10.94 5.85 9.24 4.06 22.5-4.17 29.75-7.14 6.6901-18.52 8.16-27.1 3.4601-9.52-4.9301-14.75-16.78-11.62-27.09 2.19-8.7798 9.95-15.59 18.82-17.06z"/>
		<path d="m851.42 1335.6c14.02-4.1801 29.8 7.66 29.48 22.32 0.86 13.72-12.41 25.91-25.99 24.02-11.87-0.9199-21.72-12.06-21.16-23.95-0.0099-10.34 7.7101-19.9 17.67-22.39z"/>
		<path d="m1453.8 1402.8c1.14-1.76 1.75-4.16 3.86-5.01-1.9301 5.87-1.28 12.42 1.7 17.83 4.2101 7.6801 11.53 13 18.98 17.27 7.6901 5.1801 13.91 12.62 17.67 21.11 5.1901 12.42 1.11 27.43-8.48 36.57-7.63 7.62-18.97 11.33-29.63 9.76-7.26-1.12-13.64-5.37-18.62-10.6-3.91-4.1901-6.64-10-5.51-15.82 4.4399-24.19 7.92-49.28 20.03-71.11m-2.76 7.46c-9.26 20.1-12.44 42.2-16.37 63.77-1.5801 8.75 5.14 16.09 11.84 20.64 7.21 5.4 16.94 6.1901 25.45 3.89 14.95-3.99 26.23-18.95 25.43-34.49-0.51-9.92-6.45-18.55-13.28-25.34-5.52-5.64-13.27-8.3201-18.75-14.01-6.4299-5.7201-10.53-14.2-9.6799-22.91-2.0602 2.5-3.1802 5.59-4.6402 8.45z"/>
		<path d="m853.23 1449.3c13.63-2.9099 27.95 8.75 27.68 22.72 0.92 13.69-12.38 25.74-25.87 23.99-11.59-0.78-21.3-11.46-21.28-23.02-0.5-11.27 8.35-21.96 19.47-23.69z"/>
	</g>
	<g fill="#C2272D" stroke="#C2272D">
		<path d="m1116.5 28.01c-0.38-3.62 2.67-7.33 6.48-6.82 22.36-0.03 44.71-0.07 67.07 0.02 3.09-0.15 5.95 2.73 5.75 5.83 0.13 22.65 0.0499 45.3 0.0399 67.95 0.28 1.23-0.6899 3.95 1.2101 4.09 84.11 7.28 166.72 31.32 241.59 70.34 65.3 33.95 124.77 79.09 175.07 132.82 52.68 56.22 95.38 121.81 125.2 192.87 33.01 78.32 50.06 163.23 50.38 248.2-3.8-0.12-7.6 0.13-11.38-0.08-1.62-1.21-2.21-3.28-3.3-4.89-7.7-12.6-17.91-23.61-29.55-32.66 6.5499-4.74 13.07-11.83 12.22-20.52-4.45-24.61-7.92-50.15-20.23-72.35-1.15-1.76-1.77-4.16-3.87-5.01 2.51 6.73 0.85 14.4-3.12 20.22-4.49 6.94-11.62 11.47-18.56 15.63-10.23 7.49-18.72 18.97-19.07 32.07-43.55-17.06-90.79-23.75-137.41-21.87-45.99 2.04-92.3 12.15-133.04 34.1-23.78 13.11-46.06 30.96-59.02 55.27-5.6299 0.11-11.26 0.07-16.88 0.01-8.3301-16.5-21.74-29.88-36.37-40.9-29.33-21.66-64.35-34.37-99.8-41.76-48.36-9.74-98.76-9.4-146.97 1.11-32.95 7.39-65.31 19.58-92.9 39.37-15.29 11.3-29.3 25.07-38.11 42.11-3.3 0.15-6.59 0.16-9.8799 0.06-8.91-17.57-23.49-31.6-39.3-43.03-21.59-15.32-46.21-25.91-71.53-33.38-55.09-15.73-114.06-17.39-170.09-5.61-16.16 3.48-32.09 8.12-47.45 14.24-1.31 0.53-2.65 0.87-4.03 1.04-0.2-0.19-0.61-0.55-0.81-0.74-0.73-1.13-1.32-2.39-2.45-3.16-9.91-7.67-20.64-14.49-29.1-23.85-3.04-3.3-5.16-7.28-6.98-11.34-0.44 0.1-1.33 0.31-1.77 0.41 0.33 2.28 0.92 4.53 2.1 6.54l0.02 0.12c-0.15 20.32-6.96 39.81-9 59.93-13.69 10.45-25.57 23.45-33.85 38.61-5.63 0.66-11.35 0.07-17.02 0.27 0.45-91.52 20.17-182.97 58.34-266.2 31.49-69.02 75.23-132.38 128.44-186.43 49.71-50.42 107.54-93.02 170.92-124.66 0.91 7.93 4.53 15.7 10.88 20.7 13.28 11.02 35.1 8.98 46.2-4.23 7.75-9.11 10.32-22.87 4.67-33.69-1.3199-2.18-2.16-5.18-4.97-5.83-0.11-0.13-0.34-0.39-0.46-0.52 0.16-0.5 0.46-1.49 0.61-1.99 64.65-25.05 133.33-39.73 202.59-43.03 2.89-0.14 5.84 0.08 8.64-0.84-0.3604-22.84-0.0804-45.7-0.1504-68.54m-4.53 184.91c-4.6699 4.27-6.1 11.12-4.99 17.18 1.25 6.89 3.9 13.86 9.0601 18.8 8.88 8.38 22.3 11.69 34.01 8.07 10.07-2.73 18.9-10.24 22.65-20.05 2.46-5.99 2.1-12.6 1.85-18.94-0.51-5.84-2.3-11.51-4.85-16.78-3.52-8.58-5.9301-18.61-1.9801-27.49 1.4301-3.69 4.62-6.21 6.6001-9.54-24.9 10.15-43.67 30.16-62.35 48.75m-335.72 192.18c-0.9 2.45-1.38 5.06-2.62 7.38-2.93 5.49-2.68 11.94-5.09 17.61-5.56 14.41-9.82 29.44-11.05 44.88-0.18 5.25-1 10.96 2.0601 15.62 1.9 2.8 3.65 6.61 7.27 7.35 0.04 0.03 0.12 0.1 0.16 0.13 0.15 1.57 1.63 2.31 2.8 3.04 10.27 6.23 23.93 5.89 34.21-0.14 13.23-7.44 21.34-24.12 16.56-38.96-4.63-13.35-16.84-21.82-28.13-29.26-6.55-3.47-11.49-9.69-13.51-16.8-1.13-4.36 0.3-8.68 1.89-12.71-1.5602 0.4-3.8702 0-4.5502 1.86m676.9 36.02c-3.86 4.74-9.21 7.87-14.58 10.59-9.77 5.18-20.18 9.02-30.21 13.63-6.6799 3.29-13.8 6.51-18.49 12.53-5.48 6.99-7.72 16.54-5.61 25.2 2.9 14.28 16.12 25.77 30.72 26.41 10.48 0.63 21.3-4.24 27.28-12.96 4.3101-6.07 5.33-13.67 6.23-20.87 1.76-14.8-0.14-29.96 3.6-44.52 0.9701-4.29 3.54-7.94 4.89-12.08-1.5499 0.2-2.9599 0.74-3.8299 2.07z"/>
		<path d="m974.15 996.37c0.5699-0.01 1.71-0.01 2.28-0.01 3.83 18.92 4.9 38.85-0.39 57.6-4.65 17.21-15.3 32.99-30.37 42.71-17.78 11.78-41.38 14.89-61.29 6.9099-14.51-5.7-26.15-18.15-30.77-33.06-5.25-16.06-3.19-33.39 1.11-49.42 0.86 0.2 1.7401 0.42 2.6201 0.64-5.46 18.08-6.8701 38.65 1.92 55.94 7.1 14.29 21.57 24.09 37.13 26.81 21.46 4.08 44.49-3.78 59.52-19.49 11.58-11.98 18.25-28.08 20.34-44.48 2.1899-14.73 0.2899-29.59-2.1001-44.15z"/>
		<path d="m1117.3 1076.3c7.2001-3.34 14.17-7.1699 21.47-10.3 0.21 6.73-0.63 13.58 1.0399 20.19 1.75 6.37 5.5701 12.03 10.27 16.61 7.4 7.16 16.47 12.34 25.82 16.52-7.1001 6.15-14.33 12.17-21.74 17.92-16.37 8.9399-33.37 16.74-49.15 26.74-12.12 7.24-24.25 14.46-36.38 21.67-14.52 9.35-30.34 16.34-45.68 24.2-9.2 4.39-18.02 9.64-27.71 12.91-8.31-19.44-17.97-38.35-29.65-56 8.45-6.87 16.63-14.08 24.13-21.98 4.52-4.78 8.77-10.12 10.63-16.54 0.26-1.66 2.08-1.96 3.32-2.65 19.33-8.66 38.41-17.92 58.2-25.54 18.5-7.8599 37.56-14.49 55.43-23.75z"/>
		<path d="m715.94 1150c2.95-0.97 6.02-1.46 9.1-1.84-1.16 4.8999-3.09 9.64-3.46 14.71-0.7 9.22-1.22 18.56 0.09 27.74 0.47 3.53 3.97 5.61 7.32 5.61 14.7-0.0499 29.53 0 44-2.98-15.22 38.25-30.31 76.7-49.71 113.09-10.87 21.75-20.26 44.22-28.66 67.04-1.32 3.3199-1.97 7.04-4.52 9.73-1.93 7.61-4.03 15.21-6.74 22.6-0.23 0.02-0.69 0.0601-0.91 0.0701-25.07-25.27-46.51-55.71-54.95-90.74-4.92-20.35-4.54-42.04 1.62-62.08 5.6-18.77 15.94-35.74 27.52-51.39 12.91-16.98 28.82-31.56 46.22-43.83 4.19-2.82 8.14-6.27 13.08-7.73z"/>
		<path d="m776.24 1192.5c25.44-5.3201 48.64-18.44 68.99-34.28 7.77 12.66 17.91 24.49 31.54 31 9.73 4.5801 20.6 7.2001 31.37 6.61 6.45-2.1699 12.57-5.27 18.82-7.97 12.5-5.8 25.13-11.65 36.3-19.82 22.02 32.42 36.59 69.37 46.95 107.02 6.17 21.52 10.57 43.5 16.8 65.01 3.95 14.04 8.51 27.91 13.01 41.79-14-0.53-28-1.97-42.01-0.97-3.76 0.46-8.51 0.84-10.35 4.74-2.04 4.49-1.5099 9.62-1.29 14.41 1.44 13.36 5.69 26.18 9.43 39.03 4.43 12.95 15.27 22.3 26.06 30.07 17.01 11.85 36.24 20.4 56.24 25.74 2.51 8.22 4.3301 16.67 5.9301 25.13 0.63 4.72 1.78 9.62 0.33 14.32-23.14 6.12-46.56 11.08-69.93 16.22-48.22 11.81-98.22 9.1-147.41 8.8099-43.82 0.61-87.1-7.55-129.93-15.86-10.39-1.88-20.67-4.34-31.15-5.61-13.06-1.99-26.38-3.4501-38.84-8.05-4.22-1.71-9-3.5399-11.32-7.74-0.9-3.4299 0.72-6.83 1.34-10.15 1.44-5.8099 2.72-11.65 4.3-17.41 17.23-4.0601 33.34-12.23 47.84-22.29 12.58-9.13 25-20.68 28.89-36.3 3.42-11.47 6.91-23 8.4-34.9 0.32-5.3301 1.02-11.09-1.54-15.99-1.74-3.24-5.86-3.5199-9.06-4.0699-13.92-1.3101-27.87 0.4301-41.78 0.75 7.31-20.18 15.27-40.14 24.27-59.63 8.44-18.29 18.5-35.79 26.4-54.34 11.27-24.75 20.81-50.23 31.4-75.27m77.18 26.14c-8.87 1.47-16.63 8.28-18.82 17.06-3.13 10.31 2.1 22.16 11.62 27.09 8.58 4.7 19.96 3.23 27.1-3.4601 8.23-7.25 10.02-20.51 4.17-29.75-4.87-8.02-14.81-12.64-24.07-10.94m-2 116.97c-9.96 2.49-17.68 12.05-17.67 22.39-0.56 11.89 9.29 23.03 21.16 23.95 13.58 1.89 26.85-10.3 25.99-24.02 0.3199-14.66-15.46-26.5-29.48-22.32m1.81 113.71c-11.12 1.7301-19.97 12.42-19.47 23.69-0.02 11.56 9.69 22.24 21.28 23.02 13.49 1.75 26.79-10.3 25.87-23.99 0.27-13.97-14.05-25.63-27.68-22.72z"/>
		<path d="m692.33 1384.4c14.24-0.61 28.51-1.9701 42.77-1 2.81 0.4399 6.77 0.3099 8.04 3.48 1.81 4.1 1.34 8.74 1.05 13.1-1.68 13.54-5.84 26.6-9.76 39.61-6.06 15.64-19.91 26.48-33.58 35.3-12.3 7.4399-25.48 13.99-39.61 17.04 0.17-19.04 5.75-37.51 12.7-55.06 6.76-17.26 14.09-34.39 18.39-52.47z"/>
		<path d="m989.89 1386.8c1.04-2.86 4.47-2.89 7-3.3199 14.58-1.25 29.2 0.35 43.77 0.86 4.6 19.26 13.84 36.89 22.35 54.61 7.88 16.65 14.75 34.39 14.89 53.07-15.44-3.7101-30.15-10.16-43.88-18.08-10.45-6.12-20.5-13.27-28.36-22.56-3.5099-4.29-6.5099-9.11-7.91-14.5-3.47-11.84-7.25-23.68-8.79-35.95-0.42-4.6901-0.94-9.6801 0.93-14.13z"/>
		<path d="m710.04 1646.1c1.89-12.78 3.84-25.56 5.79-38.33 55.79-0.09 111.59-0.17 167.38 0.03-4.03 40.42-8.33 80.81-12.39 121.23-0.24 2.0499-0.16 4.2899-1.3 6.14-2.56-7.89-5.65-15.64-9.94-22.75-5.44-9.04-13.86-15.68-22.04-22.09-11.47-8.84-25.1-14.97-39.49-16.9-13.91-2.1101-28.02-1.8-42.04-1.8101-18.15 0.14-36.2 4.03-52.82 11.32 2.19-12.3 4.67-24.54 6.85-36.84z"/>
		<path d="m885.54 1608.1c9.09-0.99 18.31-0.1801 27.46-0.4401 38.57 0.1001 77.15-0.1899 115.72 0.1901 2.3 15.09 4.3 30.23 7.02 45.25-8.66 6.38-17.53 12.91-23.91 21.69-11.76-2.5499-23.81-3.47-35.83-3.21-19.87 0.03-40.8 0.0701-58.93 9.34-10.83 5.27-20.18 13-28.97 21.13-6.25 5.9501-10.26 13.69-13.94 21.39 0.32-9.53 1.79-18.97 2.63-28.46 2.85-28.96 6.14-57.9 8.75-86.88z"/>
		<path d="m737.05 1675.7c12.82-2.0901 25.85-1.52 38.79-1.4301 15.61 0.26 31.72 1.8 45.82 9.04 10.31 5.1799 19.32 12.56 27.78 20.33 8.83 8.52 13.63 20.15 17.45 31.58 0.63 2.22 1.89 4.5299 1.02 6.8999-4.48 15.73-7.23 31.89-11.37 47.72-10.49 0.7-21.01 0-31.52 0.25-64.05-0.2201-128.13 0.22-192.18-0.17 0.34-17.61 1.08-35.94 9.09-52.03 7.85-15.66 21.62-27.27 35.75-37.12 17.62-12.55 37.81-22.06 59.37-25.07z"/>
		<path d="m922.29 1681.2c11.53-5 24.21-6.4 36.65-6.91 17.17-0.38 34.52-0.9 51.44 2.63-1.08 2.27-2.09 4.63-2.16 7.2001l-0.21 0.71c-3.21 12.14 3.02 25.77 13.46 32.56 10.86 7.25 26.18 7.4501 37.08 0.1801 4.5-2.83 7.75-7.15 10.4-11.67 13.09 9.62 24.91 21.82 30.97 37.15 5.89 14.9 6.6 31.2 6.59 47.05-53.51-0.35-107 0.03-160.51-0.22-13.01 0.47-26.02-0.1801-39.02 0.1699-15.98-0.1899-31.95 0.16-47.92-0.1699 4.75-18.61 7.9-37.65 13.94-55.92 3.76-10.9 8.36-22.08 16.92-30.14 9.5499-9.0901 20.14-17.43 32.37-22.62z"/>
	</g>
	<g fill="#EFD0B4" stroke="#EFD0B4">
		<path d="m857.35 99.77c0.34 0.23 0.34 0.23 0 0z"/>
		<path d="m817.44 857.48c29.99-16.51 61.55-30.08 93.85-41.37 4.54 17.23 17.09 31.33 32.25 40.2 16.26 9.52 34.08 16.29 52.36 20.73 33.49 8.04 69.21 5.17 101.46-6.62 5.15 7.87 5.21 17.46 6.34 26.47 2.4501 22.22 3.2001 44.91-1.2 66.95-4 20.77-12.46 40.43-22.75 58.82-17.82 32.36-43.68 60.1-74.19 80.85-51.72 35.38-116.54 50.92-178.7 43.12-42.59-4.87-85.02-13.98-124.46-31.13-15.88-7.0699-32.01-14.28-45.61-25.3-5.73-4.5599-10.84-9.85-15.61-15.39 0.87-10.7-0.29-21.77-5.21-31.44 6.9301-1.78 13.07-5.63 19.03-9.45 9.11-6.0801 17.71-12.89 26.03-20.01 7.66-6.6299 14.57-14.06 21.88-21.07 13.77-13.64 27.29-27.82 37.47-44.42 11.1-18.35 23.75-37.41 24.73-59.53-0.24-1.47 1.26-1.95 2.23-2.56 16.69-9.6399 33.32-19.38 50.1-28.85m98.06 7.25c-3.8 2.1-5.91 6.24-6.73 10.37-1.48 7.63 0.04 15.66 3.54 22.54 2.7 5.05 6.85 9.95 12.65 11.34 4.28 1.12 8.73-1.46 10.9-5.1 3.18-5.19 3.32-11.57 2.55-17.42-1.2599-7.37-4.45-14.75-10.3-19.6-3.4-2.86-8.5-4.44-12.61-2.13m-104.15 34.75c-4.25 2.18-6.22 7.04-6.94 11.52-1.31 9.51 1.38 19.63 7.58 27.02 3.28 3.85 8.44 6.93 13.64 5.5 5.03-1.55 7.7-6.74 8.57-11.59 1.69-10.15-1.4-21.18-8.44-28.74-3.54-3.77-9.49-6.47-14.41-3.71m102.43 44.86c-3.45 8.79-8.95 17.7-17.81 21.83-8.17 3.48-17.44 1.11-25.03-2.74-0.96-0.91-2.27 1.07-1.03 1.59 9.07 5.02 21.16 7.18 30.29 1.13 7.65-5.16 12.7-13.46 15.78-22.01-0.5499 0.05-1.6499 0.15-2.1999 0.2m60.37 52.03c2.39 14.56 4.29 29.42 2.1 44.15-2.09 16.4-8.76 32.5-20.34 44.48-15.03 15.71-38.06 23.57-59.52 19.49-15.56-2.72-30.03-12.52-37.13-26.81-8.79-17.29-7.38-37.86-1.92-55.94-0.88-0.22-1.76-0.44-2.6201-0.64-4.3 16.03-6.36 33.36-1.11 49.42 4.62 14.91 16.26 27.36 30.77 33.06 19.91 7.9801 43.51 4.87 61.29-6.9099 15.07-9.7201 25.72-25.5 30.37-42.71 5.29-18.75 4.22-38.68 0.39-57.6-0.5699 1e-4 -1.7099 1e-4 -2.2799 0.0101z"/>
		<path d="m1168.9 1023.8c7.4501-6.29 15.81-11.4 24.37-16.04 24.93 12.3 51.59 21.14 75.34 35.78 5.8201 3.8999 12.24 7.87 15.48 14.33 2.3899 4.91 2.26 10.97-0.4801 15.72-3.4299 6.3101-9.0499 10.98-14.03 16.01-2.5901 2.4301-5.7101 5.3301-9.54 4.86-3.35-1.0599-4.97-4.51-6.1-7.5399-2.0801-5.99-2.89-12.33-3.49-18.61-0.62-0.0601-1.86-0.16-2.48-0.2201-1.8301 9.49-3.0801 19.37-7.8201 27.96-2.51 4.62-6.7999 8.6899-12.22 9.35-4.16 0.49-9.22 0.02-11.91-3.61-2.49-3.76-2.4299-8.5701-1.89-12.87 1.36-10.82 5.49-21.02 7.8-31.63-0.64-0.0601-1.91-0.1901-2.55-0.26-3.4199 8.38-7.4099 16.86-14.03 23.23-4.17 4.1-10.41 6.51-16.16 4.58-5.5-1.87-10.88-5.4199-13.58-10.68-2.22-4.36 0.1101-9.28 2.9901-12.68 6.4299-7.5599 15.19-12.55 23.36-17.97-0.3301-0.8201-0.65-1.62-0.9601-2.41-9.08 2.9601-18.43 5.38-27.98 6.05-4.0699 0.16-8.4199 0-11.98-2.16-3.01-1.9299-3.5-6.08-2.09-9.14 2.12-4.8501 6-8.6401 9.95-12.05z"/>
	</g>
	<g fill="#C8EAF4" stroke="#C8EAF4">
		<path d="m857.74 104.08c-0.71-1.52 0.48-2.7 1.06-3.94 0.98 3.02 3.09 5.46 5.16 7.8 12.21 13.11 28.83 21.14 40.83 34.47 0.12 0.13 0.35 0.39 0.46 0.52 4.99 5.75 7.74 13.46 7.05 21.08-0.82 8.9-5.45 17.53-12.79 22.72-11.38 8.44-28.55 8.42-39.52-0.72-7.05-5.71-11.16-14.88-10.51-23.95 1.11-14.21 5.3-27.95 7.3-42.03 0.75-5.27 1.69-10.63 0.96-15.95z"/>
		<path d="m1158.5 173.36c4.01-2.44 8.01-5.02 12.47-6.61-2.76 3.6-5.22 7.6-5.79 12.19-1.58 9.17 1.52 18.4 5.39 26.62 3.4301 8.81 4.17 18.71 2.22 27.95-4 15.36-20.3 25.48-35.82 23.87-11.84-1.04-23.57-8.66-27.27-20.3-2.86-7.37-3.6899-17 2.39-23.01 14.56-14.53 28.94-29.61 46.41-40.71z"/>
		<path d="m774.83 411.89c1.55-2.6 1.08-6.8 4.51-7.79-0.95 3.36-2.22 6.82-1.59 10.37 1.02 6.55 5.06 12.42 10.2 16.47 7.19 4.66 14.41 9.37 20.69 15.24 6.27 5.88 11.58 13.48 12.31 22.28 1.23 13.76-7.67 27.1-19.83 33.02-10.84 5.25-24.67 4.22-34.16-3.41-0.04-0.03-0.12-0.1-0.16-0.13-4.47-4.13-8.81-9.49-8.68-15.9 0.15-17.72 4.85-35.08 11.22-51.51 2.48-6.03 2.33-12.85 5.49-18.64z"/>
		<path d="m1454.3 443.41c-2.2001 0.38-0.9-3.55 0.5599-1.66-0.14 0.42-0.4199 1.25-0.5599 1.66z"/>
		<path d="m1452.2 443.26c0.37 0.64 0.76 1.28 1.16 1.93-3.4399 6.76-3.74 14.52-4.47 21.91-0.96 14.6 0.48 29.76-4.61 43.76-5.74 14.41-23.79 21.39-38.04 15.96-14.33-4.93-24.31-20.77-21.36-35.85 1.5-8.06 6.58-15.31 13.67-19.43 12.58-7.46 26.65-11.85 39.58-18.6 5.01-2.66 10.44-5.15 14.07-9.68z"/>
		<path d="m1735.2 611.23c12.91 22.55 16.73 48.66 21.15 73.87 0.92 8.32-5.3899 15.18-11.76 19.59-12.01 8.69-29.72 5.9-40.05-4.17-7.95-7.38-12.44-18.65-10.7-29.47 1.3199-8.5 6.59-15.74 12.44-21.78 5.62-5.96 13.71-8.67 19.37-14.6 6.5801-5.85 10.41-14.59 9.5501-23.44z"/>
		<path d="m549.92 638.97c1.99 3.89 4.11 7.78 7.14 10.99 9.33 10.05 21.19 17.18 31.76 25.78 0.2 0.19 0.61 0.55 0.81 0.74 5.84 5.23 12.08 10.86 14.49 18.59 4.09 11.92-0.88 25.83-10.79 33.33-10.13 7.95-25 9.04-36.13 2.54-9.39-5.32-15.33-16.12-14.5-26.92 1.29-15.5 6.01-30.46 7.85-45.89 0.5-4.52 1.26-9.2 0.09-13.67l-0.02-0.12c-0.25-1.8001-0.48-3.5901-0.7-5.3701z"/>
		<path d="m1386.2 817.9c9.75 19.42 16.12 40.59 19.09 62.12 0.3199 6.23 2.53 12.85-0.17 18.84-2.52 5.29-7.0599 9.3-11.61 12.83-8.09 4.97-18.49 4.56-27.07 1.06-7.8301-3.25-15.21-8.7-18.87-16.55-5.0601-10.19-3.8201-22.84 2.39-32.26 8.8999-13 25.41-18.76 33.19-32.74 2.4499-4.02 2.67-8.76 3.05-13.3z"/>
		<path d="m1656.2 998.27l0.64 0.18c-1.22 17.86 4.7001 35.09 7.3 52.58 0.6799 5.33 1.89 10.82 0.54 16.16-1.79 8.8501-7.9901 16.63-16.15 20.47-9.63 4.5-21.48 4-30.63-1.4301-11.94-6.73-18.55-22.05-14.27-35.23 2.73-8.79 10.03-14.96 16.81-20.7 12.32-10.14 27.12-18.14 35.76-32.03z"/>
		<path d="m1451 1410.2c1.46-2.86 2.58-5.95 4.64-8.45-0.85 8.71 3.25 17.19 9.6799 22.91 5.48 5.6899 13.23 8.37 18.75 14.01 6.8301 6.7899 12.77 15.42 13.28 25.34 0.8 15.54-10.48 30.5-25.43 34.49-8.5099 2.3-18.24 1.51-25.45-3.89-6.7-4.55-13.42-11.89-11.84-20.64 3.9302-21.57 7.1102-43.67 16.37-63.77z"/>
		<path d="m689.38 1559c19.9-1.13 39.83-1.49 59.75-2.42-2.29 10.04-4.06 20.18-6.2 30.25-1.43 6.03-0.64 12.27-0.81 18.4-9.49 0.02-18.98-0.0601-28.46 0.0499-0.75 5.29-1.52 10.6-2.45 15.88-19.8 1.79-39.64 3.3301-59.31 6.37-24.03 3.51-47.85 8.38-71.96 11.3-24.22 2.96-48.64 3.91-72.81 7.24-13.09 1.59-25.84 5.15-38.92 6.75-21.66 3.27-43.68 4.0601-65.1 8.89-9.59 2.0601-18.64 5.92-27.6 9.8101-15.96 7.1699-31.49 15.69-44.95 26.98-7.26 6.46-14.39 13.58-18.29 22.66-2.65 5.62-2.38 12.13-1.39 18.12 4.66 15.15 16.7 26.5 28.73 36.13 17.38 13.25 37.29 22.91 57.97 29.81 19.42 6.4 39.41 10.87 59.36 15.25 23.22 5.04 46.45 10.19 70.06 13.03 22.96 3.11 46.01 5.5699 68.94 8.9199 23.64 3.62 47.19 7.9301 70.95 10.77 21.67 2.34 43.41 3.87 65.08 6.0801 24.29 2.1799 48.64 3.7999 73.03 4.2599 14.96 1.3 30.02 0.5901 44.97 1.7401 10.7 0.0199 21.38 0.37 32.07 0.46 24.88 0.1699 49.5-3.6901 74.15-6.53 25.78-3.5 51.86-2.3199 77.81-2.5 19.69 0.29 39.38-0.1 58.99-1.84 42.78-3.7101 86.1-4.9401 128.01-15.28 20.48-4.8199 40.63-11 61.2-15.47 36.66-7.9301 72.94-18.2 107.59-32.67 13.63-6.1 26.8-13.69 37.6-24.12 8.1799-8.22 14.87-18.61 16.23-30.34 1.46-8.28-0.9301-17.02-5.74-23.83-6.61-9.1799-16.33-15.45-26.04-20.91-10.65-5.8-21.82-10.57-33.1-14.97-17.34-6.41-33.08-16.25-49.65-24.31-20.31-10.18-42.19-18.16-65.06-19.38-23.22-1-46.52 0.54-69.68-1.71-33.43-1.6-63.62-18.08-96.29-23.58-15.5-3.12-31.38-1.73-47.07-2.1-6.05-0.3199-12.07 0.4301-18.1 0.5601-1.71 0.5499-2.23-1.91-3.86-1.51-13.03-0.05-26.06 0.0499-39.09-0.05-3.48-10.27-8.19-20.15-10.57-30.77-1.26-4.9199-2.52-9.84-3.79-14.74 7.21-0.78 14.41-1.7899 21.56-3.0499 3.85-0.67 7.71 0.3099 11.54 0.6699 34.92 3.7101 68.89 15.88 104.32 14.34 32.47-1.0901 64.4-11.48 97.06-7.67 35.61 3.41 71.39 5.36 106.83 10.46 33.97 5.0801 66.04 18.14 99.64 24.83 23.13 4.23 44.85 13.57 66.38 22.69 14.7 6.04 29.49 12.32 45.2 15.24 20.74 3.8101 41.9 2.0601 62.86 2.22 13.14-0.0399 26.89 0.53 38.9 6.49 23.86 11.7 45.3 29.36 59.17 52.23 6.9399 11.87 12.76 25.73 10.36 39.75-2.8301 11.21-12.19 19.05-21.31 25.35-12.26 8.28-25.66 14.66-38.92 21.13-12.98 6.4299-26.66 11.7-38.43 20.3-22.13 15.57-42.99 34.02-68.95 43.06-14.9 4.95-30.33 8.09-45.67 11.37-22.97 4.66-46.07 8.58-69.09 12.99-34.4 6.1-69.5 5.45-104.06 10.17-39.16 5.45-78.88-2.3301-118.01 3.73-19.76 3.26-38.68 10.02-58 15.08-15.93 4.3-32.35 7.53-48.93 6.78-26.42-0.9301-51.73-9.79-77.94-12.45-22.54-2.75-45.1 1.45-67.27 5.1799-20.76 3.66-41.7 7.33-62.86 6.79-36.1-0.4401-71.88-6.47-107.97-6.9301-28.8 0.0701-57.2 5.9601-85.94 6.9-35.03 1.03-68.86-9.45-103.08-15.26-11.43-2.0699-23.04-2.78-34.56-4.16-23.52-2.7899-46.89-6.6399-70.29-10.23-9.08-1.2-18.1-2.9399-27.24-3.5699-35.31-3.25-70.97 7.33-105.99-0.52-25.11-4.8199-50.1-10.26-74.92-16.4-21.1-5.33-42.03-11.3-63.05-16.93-19.61-5.5-39.28-11.03-58.11-18.89-19.66-8.3101-37.91-20.11-53.21-35.03-10.75-10.72-20.29-23.04-25.87-37.28-2.84-7.47-4.66-15.8-2.59-23.68 3.42-10.41 12.89-17.03 21.78-22.54 24.2-14.15 51.05-22.99 75.52-36.6 18.55-10.76 36.14-23.25 55.63-32.33 16.48-8.22 34.57-12.07 52.05-17.5 24.76-7.48 49.6-14.89 74.99-19.98 31.37-6.23 63.26-8.9199 94.95-12.86 10.32-1.1 20.56-3.14 30.96-3.14 26.11-0.76 51.99 3.99 78.09 3.24 35 0.6001 67.18-15.27 101.09-21.36 12.24-2.4501 24.76-2.5701 37.18-3.3101z"/>
		<path d="m1031.1 1607.5c5.2999 0.22 10.52-1.02 15.82-0.75 12.98 0.14 25.98-0.4099 38.94 0.6 32.75 2.6901 62.48 18.51 94.71 23.76 26.27 3.9701 52.91 1.9401 79.35 3 20.22 0.41 39.95 6.1801 58.28 14.47 18 7.9299 34.74 18.43 52.75 26.35 18.77 7.48 38.03 14.7 54.41 26.8 8.9 6.5601 16.82 15.85 17.88 27.28 1.1899 13.91-5.88 27.17-15.35 36.92-12.3 12.26-27.82 20.69-43.73 27.28-33.69 13.39-68.69 23.31-104.14 30.82-34.39 7.85-68.09 19.41-103.36 22.91-23.47 3.0399-47.1 4.4299-70.67 6.37-12.02 0.76-24.01 2.02-36.05 2.4299-13.94 1.05-27.95 0.3201-41.92 0.54-23.04 0.3101-46.18-0.98-69.08 2.02-21.99 2.4399-43.9 6.03-66.05 6.61-11.32 0.99-22.66-0.15-34-0.12-16.33-0.2-32.63-1.08-48.96-1.35-10.18-1.11-20.46-0.41-30.64-1.4701-20.15-0.61-40.18-2.7599-60.26-4.4199-21.98-2.38-44.09-3.4501-65.98-6.72-23.78-3.28-47.37-7.8201-71.17-10.91-23.34-3.11-46.75-5.5601-70.02-9.13-19.5-2.83-38.66-7.5-57.93-11.5-23.72-5.34-47.61-10.61-70.22-19.74-23.23-9.62-45.74-22.76-62.16-42.14-5.73-7.28-11.09-15.78-10.93-25.38-0.22-8.05 4.03-15.32 8.9-21.39 11.95-14.27 27.95-24.41 44.35-32.83 14.66-7.25 29.8-14.11 46.05-16.85 25.52-4.54 51.59-5.25 76.99-10.67 20.76-4.58 42.02-5.9301 63.13-7.87 21.11-1.52 42.13-4.22 62.99-7.84 22.91-3.91 45.83-7.89 68.98-10.12 9.76-0.6101 19.48-1.8401 29.22-2.8101-1.9 11.35-3.25 22.79-5.5 34.09-0.41 1.4701-0.23 3.36-1.62 4.37-11.76 1.2001-23.39 3.52-35.16 4.7201-23.58 2.7899-47.4 2.46-71.01 4.8999-19.87 1.54-39.1 7.55-57.39 15.22-15.45 6.8099-30.87 15.5-41.1 29.32-5.55 7.54-8.18 17.87-4.48 26.79 4.19 10.89 13.68 18.44 23.15 24.64 16.92 10.37 35.79 17.08 54.86 22.31 20.58 5.4301 41.92 6.13 63.01 7.9501 17.05 0.97 34.03 2.97 50.96 5.2 32.88 3.7 65.94 5.29 98.95 7.25 29.32 3.35 57.62 12.87 87.09 15.27 7.3 0.12 14.61-0.1 21.92 0.08 18.9-1.4199 37.5-5.36 56.03-9.23 12.22-2.42 24.5-4.87 36.96-5.49 24.43-1.64 48.73 1.76 73.08 2.85 24.52 2.3 48.9-2.5599 72.78-7.59 19.52-4.3 38.79-9.65 58.04-15.01 21.98-6.0601 44.29-13.17 62.99-26.62 8.49-6.12 16.29-14.3 18.92-24.71 2.1801-9.2101-1.22-18.72-6.63-26.15-8.09-10.69-19.29-18.53-31.08-24.63-18.79-9.7001-39.35-15.27-59.93-19.64-23.92-4.89-48.11-8.26-72.29-11.6-12.91-1.9301-25.94-3.2101-39-3.23-0.3899-4.9301-1.58-9.79-1.5-14.74-0.1899-1.59 0.38-3.4099-0.8099-4.6699-0.79 19.97 7.3199 38.97 8.28 58.8 0.6599 11.09-6.15 21.95-16.08 26.72-11.46 5.8099-26.29 3.8999-35.95-4.54-5-4.34-8.5-10.31-10.05-16.72-0.9901-4.16-0.51-8.4401-0.7-12.65l0.21-0.71c1.91-3.11 2.61-6.86 5.02-9.7001 12.29-16.01 31.93-24.02 44.83-39.44 2.2401-2.65 3.7201-5.8301 5.5901-8.72-0.36 2.3199-0.75 4.6499-1.1801 6.99 1.96-2.05 1.8201-5.37 2.22-8.05-0.72-1.97-1.9199-0.17-2.2799 0.9399-4.87 11.04-15.19 18.02-24.26 25.35-3.07-14.54-4.62-29.4-7.02-44.07z"/>
		<path d="m1065.2 1653.2c20.44-0.16 40.6 3.61 60.8 6.2899 27.24 4.03 54.59 8.24 80.96 16.35 16.66 5.34 33.06 12.38 46.95 23.19 7.54 6.29 14.84 13.57 18.24 23.01 2 4.72 2.03 10.01 1.4 15.04-2.03 9.09-8.27 16.6-15.31 22.4-16.34 13.15-36.4 20.48-56.25 26.51-37.81 10.56-75.78 21.68-114.97 25.61-25.06 1.53-49.95-2.5299-74.93-3.25-12.4 0.02-24.86-0.4299-37.14 1.4901-24.14 3.4099-47.69 10.29-71.99 12.69-9.24 1.58-18.66 0.5-27.98 0.85-30.78-2.11-60.27-12.5-90.92-15.54-30.36-1.76-60.74-3.3601-91-6.4401-22.25-2.92-44.55-5.36-66.94-6.65-18.17-1.46-36.47-2.63-54.14-7.47-19.21-5.39-38.31-12.2-55.19-23.04-9.05-6.13-17.97-13.67-21.72-24.29-3.23-8.74-0.35-18.54 5.06-25.75 8.94-11.81 21.75-19.97 34.97-26.24 12.76-6.0901 26.23-10.61 39.9-14.15 21.99-5.01 44.64-5 67.03-6.42 21.14-0.62 42.03-4.1899 62.95-7.0599-1.62 7.99-3.07 16.01-4.55 24.03-15.55 7.6901-30.03 17.59-42.89 29.24-11.58 10.62-20.43 24.44-23.75 39.91-2.83 12.28-3.26 24.94-3.33 37.49 2.24 2.42 5.68 1.26 8.57 1.51 156.16 0.01 312.31-0.03 468.46 0.02 0.5701-0.77 1.16-1.51 1.76-2.23-0.53-14.26-0.6699-28.78-5.02-42.51-5.3899-18.39-19.01-33.02-34.18-44.08 2.29-7.03 1.95-14.55 0.59-21.72-1.37-9.6798-4.01-19.13-5.44-28.79z"/>
	</g>
	<g fill="#603814" stroke="#603814">
		<path d="m1219 759.03c16-2.42 32.75 0.5099 47.11 7.9399 11.26 6.1 21.41 14.03 32.67 20.13 4.8 2.55 10.14 5.73 11.73 11.31 1.22 5.76-2.15 11.19-5.64 15.47-9.12 10.55-21.11 18-33.07 24.9-9.97 5.62-20.27 10.64-30.81 15.08-8.4399 3.37-16.94 6.83-25.97 8.27-25.72 4.57-52.07 4.47-78.01 1.99-9.6899-0.7-19.22-2.76-28.84-3.76-4.28 4.07-9.3101 7.37-15.04 8.99-24.67 8.33-51.16 11.7-77.07 8.69-20.89-2.4-41.2-8.8-60.11-17.91-12.15-5.77-23.77-13.4-32.08-24.14-4.62-6.07-7.85-13.03-10.19-20.25 5.08-2.76 10.86-3.98 16.27-6 33.45-10.87 67.55-19.62 101.91-27.1 1.37-0.26 2.76-0.36 4.17-0.47 13.04 11.53 28.36 20.07 41.84 31.05 11.56 9.29 23.74 18.9 30.66 32.35 0.27 0.04 0.8201 0.14 1.09 0.18 6.76-8.98 10.94-19.5 15.45-29.7 3.25-7.51 9.3099-13.33 15.62-18.33 14.5-11.07 31.54-17.93 47.35-26.8 9.7598-5.2099 19.95-10.06 30.96-11.89z"/>
		<path d="m918.19 866.35c3.16-0.7599 6.45 0.59 8.76 2.75 5.85 5.32 8.82 13.18 9.37 20.95 0.26 4.57-0.47 9.36-2.98 13.27-1.95 2.97-6.11 4.28-9.3701 2.77-5.06-2.06-8.21-6.96-10.46-11.7-2.55-6.2-3.8-13.24-2.08-19.82 0.9401-3.48 3.0201-7.23 6.7601-8.22z"/>
		<path d="m716.37 917.27c15.22-9.48 30.42-19.05 46.06-27.8-0.27 12.66-5.48 24.57-11.27 35.62-8.78 16.05-18.28 31.88-30.5 45.58-11.56 13.06-24.35 24.95-36.67 37.28-10.83 9.67-22.19 18.86-34.54 26.53-5.36 3.29-11.06 6.41-17.45 6.9 2.9 5.52 5.48 11.31 6.33 17.55 2.28 17.53-2.6 35-9.07 51.14-8.25 19.99-19.11 38.88-31.87 56.33-11.13 14.73-23.94 28.17-37.82 40.33-10 8.51-20.6 16.43-32.25 22.55-9.47 4.75-19.65 8.77-30.38 9-2.78 0.2899-3.97-2.6801-4.46-4.87-1.56-7.48-0.6-15.18 0.2-22.68 3.33-24.17 9.32-47.91 16.78-71.12 3.21-9.1899 5.86-18.77 10.99-27.12 10.99-14.28 21.04-29.35 33.46-42.47 4.47-4.4401 8.96-9.67 15.2-11.49 10.15-0.24 20.63-0.37 30.17-4.3201 9.5-4.14 17.07-11.41 24.46-18.46-8.18-15.26-5.83-33.18-6.97-49.81 32.79-23.48 65.4-47.25 99.6-68.67z"/>
		<path d="m813.3 901.34c4.39-1.84 8.96 1.45 11.7 4.72 6.15 7.64 8.92 18.42 6.08 27.95-0.96 3.72-4.02 7.23-8.07 7.42-3.74 0.04-6.94-2.46-9.25-5.17-5.69-6.96-8.26-16.4-6.85-25.27 0.68-3.88 2.43-8.15 6.39-9.65z"/>
	</g>
	<g fill="#4D4D4D" stroke="#4D4D4D">
		<path d="m1038.3 781.44c25.57-5.5 51.38-10 77.26-13.75-6.6901 17.81-16.91 34.36-30.61 47.63-5.78-3.9-11.02-8.51-16.79-12.42-9.93-7.18-20.14-13.99-29.86-21.46z"/>
		<path d="m603.01 996.02c3.35-2.3 6.51-4.89 9.94-7.08 0.46 14.24 1.62 28.49 4.84 42.41-14.77 6.9501-31.28 10.78-47.63 9.4301-1.6-6.3-3.5699-13.04-1.7599-19.49 2.1-3.96 4.7-8 8.81-10.11 8.6499-4.95 17.72-9.26 25.8-15.16z"/>
		<path d="m1658.1 997.06c-1.0599-0.83-1.77-3.41-0.13-3.94 1.61 0.32 1.49 3.41 0.13 3.94z"/>
		<path d="m1656.3 996.75c0.33 0.21 0.33 0.21 0 0z"/>
		<path d="m1192.3 1046.2c0.49 0.48 0.49 0.48 0 0z"/>
	</g>
	<g fill="#2E3192" stroke="#2E3192">
		<path d="m744.85 1589.8c3.07-13.51 4.85-27.3 8.85-40.58 33.49 6.24 67.28 11.89 101.43 12.51 1.92-0.3301 1.74 1.99 2.02 3.23 1.31 13.45 3.4 26.83 4.48 40.31-30.53-0.1599-61.06-0.0299-91.58-0.0699-8.58-0.17-17.17 0.3199-25.72-0.23 0.44-5.06-0.25-10.16 0.52-15.17z"/>
		<path d="m859.4 1561.8c37.87 0.12 75.84 1.9399 113.61-1.74 3.04 9.8099 4.51 20.09 8.51 29.59 1.87 5.22 4.04 10.33 5.67 15.64-41.01-0.12-82.02 0.22-123.01-0.15-1.15-14.5-3.69-28.85-4.78-43.34z"/>
	</g>
</g>
</svg>